# xmcd CD database file
#
# Track frame offsets:
#	150
#	55187
#	89335
#	130569
#	158892
#	185947
#	216368
#	242283
#	273243
#
# Disc length: 4072 seconds
#
# Revision: 0
# Processed by: cddbd v1.5.1PL2 Copyright (c) Steve Scherf et al.
# Submitted via: CDex 1.51
#
DISCID=790fe609
DTITLE=David Kikoski - Details
DYEAR=2003
DGENRE=Jazz
TTITLE0=In Your Own Sweet Way
TTITLE1=Detachment
TTITLE2=7/4 Ballad
TTITLE3=Inner Urge
TTITLE4=Juriki
TTITLE5=Adorable You
TTITLE6=K's Blues
TTITLE7=Presage
TTITLE8=Tag Blues
EXTD=YEAR: 2003
EXTT0=
EXTT1=
EXTT2=
EXTT3=
EXTT4=
EXTT5=
EXTT6=
EXTT7=
EXTT8=
PLAYORDER=
